%TF.GenerationSoftware,KiCad,Pcbnew,10.0.1*%
%TF.CreationDate,2026-06-29T16:13:07+01:00*%
%TF.ProjectId,harp output expander front panel,68617270-206f-4757-9470-757420657870,rev?*%
%TF.SameCoordinates,Original*%
%TF.FileFunction,Legend,Top*%
%TF.FilePolarity,Positive*%
%FSLAX46Y46*%
G04 Gerber Fmt 4.6, Leading zero omitted, Abs format (unit mm)*
G04 Created by KiCad (PCBNEW 10.0.1) date 2026-06-29 16:13:07*
%MOMM*%
%LPD*%
G01*
G04 APERTURE LIST*
%ADD10C,0.342900*%
%ADD11C,0.190500*%
%ADD12C,0.320040*%
%ADD13C,3.000000*%
%ADD14C,11.700000*%
G04 APERTURE END LIST*
D10*
X110440714Y-93160870D02*
X110810828Y-93160870D01*
X110810828Y-93160870D02*
X110995885Y-93253399D01*
X110995885Y-93253399D02*
X111180942Y-93438456D01*
X111180942Y-93438456D02*
X111273471Y-93808570D01*
X111273471Y-93808570D02*
X111273471Y-94456270D01*
X111273471Y-94456270D02*
X111180942Y-94826384D01*
X111180942Y-94826384D02*
X110995885Y-95011442D01*
X110995885Y-95011442D02*
X110810828Y-95103970D01*
X110810828Y-95103970D02*
X110440714Y-95103970D01*
X110440714Y-95103970D02*
X110255657Y-95011442D01*
X110255657Y-95011442D02*
X110070599Y-94826384D01*
X110070599Y-94826384D02*
X109978071Y-94456270D01*
X109978071Y-94456270D02*
X109978071Y-93808570D01*
X109978071Y-93808570D02*
X110070599Y-93438456D01*
X110070599Y-93438456D02*
X110255657Y-93253399D01*
X110255657Y-93253399D02*
X110440714Y-93160870D01*
X112106228Y-93160870D02*
X112106228Y-94733856D01*
X112106228Y-94733856D02*
X112198757Y-94918913D01*
X112198757Y-94918913D02*
X112291286Y-95011442D01*
X112291286Y-95011442D02*
X112476343Y-95103970D01*
X112476343Y-95103970D02*
X112846457Y-95103970D01*
X112846457Y-95103970D02*
X113031514Y-95011442D01*
X113031514Y-95011442D02*
X113124043Y-94918913D01*
X113124043Y-94918913D02*
X113216571Y-94733856D01*
X113216571Y-94733856D02*
X113216571Y-93160870D01*
X113864272Y-93160870D02*
X114974615Y-93160870D01*
X114419443Y-95103970D02*
X114419443Y-93160870D01*
X116640129Y-95103970D02*
X115529786Y-95103970D01*
X116084957Y-95103970D02*
X116084957Y-93160870D01*
X116084957Y-93160870D02*
X115899900Y-93438456D01*
X115899900Y-93438456D02*
X115714843Y-93623513D01*
X115714843Y-93623513D02*
X115529786Y-93716042D01*
D11*
X93722351Y-113807983D02*
X93722351Y-112728483D01*
X93722351Y-112728483D02*
X94133589Y-112728483D01*
X94133589Y-112728483D02*
X94236399Y-112779888D01*
X94236399Y-112779888D02*
X94287804Y-112831293D01*
X94287804Y-112831293D02*
X94339208Y-112934102D01*
X94339208Y-112934102D02*
X94339208Y-113088317D01*
X94339208Y-113088317D02*
X94287804Y-113191126D01*
X94287804Y-113191126D02*
X94236399Y-113242531D01*
X94236399Y-113242531D02*
X94133589Y-113293936D01*
X94133589Y-113293936D02*
X93722351Y-113293936D01*
X94956066Y-113807983D02*
X94853256Y-113756579D01*
X94853256Y-113756579D02*
X94801851Y-113705174D01*
X94801851Y-113705174D02*
X94750447Y-113602364D01*
X94750447Y-113602364D02*
X94750447Y-113293936D01*
X94750447Y-113293936D02*
X94801851Y-113191126D01*
X94801851Y-113191126D02*
X94853256Y-113139721D01*
X94853256Y-113139721D02*
X94956066Y-113088317D01*
X94956066Y-113088317D02*
X95110280Y-113088317D01*
X95110280Y-113088317D02*
X95213089Y-113139721D01*
X95213089Y-113139721D02*
X95264494Y-113191126D01*
X95264494Y-113191126D02*
X95315899Y-113293936D01*
X95315899Y-113293936D02*
X95315899Y-113602364D01*
X95315899Y-113602364D02*
X95264494Y-113705174D01*
X95264494Y-113705174D02*
X95213089Y-113756579D01*
X95213089Y-113756579D02*
X95110280Y-113807983D01*
X95110280Y-113807983D02*
X94956066Y-113807983D01*
X95675732Y-113088317D02*
X95881351Y-113807983D01*
X95881351Y-113807983D02*
X96086970Y-113293936D01*
X96086970Y-113293936D02*
X96292589Y-113807983D01*
X96292589Y-113807983D02*
X96498208Y-113088317D01*
X97320684Y-113756579D02*
X97217875Y-113807983D01*
X97217875Y-113807983D02*
X97012256Y-113807983D01*
X97012256Y-113807983D02*
X96909446Y-113756579D01*
X96909446Y-113756579D02*
X96858042Y-113653769D01*
X96858042Y-113653769D02*
X96858042Y-113242531D01*
X96858042Y-113242531D02*
X96909446Y-113139721D01*
X96909446Y-113139721D02*
X97012256Y-113088317D01*
X97012256Y-113088317D02*
X97217875Y-113088317D01*
X97217875Y-113088317D02*
X97320684Y-113139721D01*
X97320684Y-113139721D02*
X97372089Y-113242531D01*
X97372089Y-113242531D02*
X97372089Y-113345340D01*
X97372089Y-113345340D02*
X96858042Y-113448150D01*
X97834732Y-113807983D02*
X97834732Y-113088317D01*
X97834732Y-113293936D02*
X97886137Y-113191126D01*
X97886137Y-113191126D02*
X97937542Y-113139721D01*
X97937542Y-113139721D02*
X98040351Y-113088317D01*
X98040351Y-113088317D02*
X98143161Y-113088317D01*
X98914232Y-113756579D02*
X98811423Y-113807983D01*
X98811423Y-113807983D02*
X98605804Y-113807983D01*
X98605804Y-113807983D02*
X98502994Y-113756579D01*
X98502994Y-113756579D02*
X98451590Y-113653769D01*
X98451590Y-113653769D02*
X98451590Y-113242531D01*
X98451590Y-113242531D02*
X98502994Y-113139721D01*
X98502994Y-113139721D02*
X98605804Y-113088317D01*
X98605804Y-113088317D02*
X98811423Y-113088317D01*
X98811423Y-113088317D02*
X98914232Y-113139721D01*
X98914232Y-113139721D02*
X98965637Y-113242531D01*
X98965637Y-113242531D02*
X98965637Y-113345340D01*
X98965637Y-113345340D02*
X98451590Y-113448150D01*
X99890923Y-113807983D02*
X99890923Y-112728483D01*
X99890923Y-113756579D02*
X99788114Y-113807983D01*
X99788114Y-113807983D02*
X99582495Y-113807983D01*
X99582495Y-113807983D02*
X99479685Y-113756579D01*
X99479685Y-113756579D02*
X99428280Y-113705174D01*
X99428280Y-113705174D02*
X99376876Y-113602364D01*
X99376876Y-113602364D02*
X99376876Y-113293936D01*
X99376876Y-113293936D02*
X99428280Y-113191126D01*
X99428280Y-113191126D02*
X99479685Y-113139721D01*
X99479685Y-113139721D02*
X99582495Y-113088317D01*
X99582495Y-113088317D02*
X99788114Y-113088317D01*
X99788114Y-113088317D02*
X99890923Y-113139721D01*
X101227446Y-113807983D02*
X101227446Y-112728483D01*
X101227446Y-113139721D02*
X101330256Y-113088317D01*
X101330256Y-113088317D02*
X101535875Y-113088317D01*
X101535875Y-113088317D02*
X101638684Y-113139721D01*
X101638684Y-113139721D02*
X101690089Y-113191126D01*
X101690089Y-113191126D02*
X101741494Y-113293936D01*
X101741494Y-113293936D02*
X101741494Y-113602364D01*
X101741494Y-113602364D02*
X101690089Y-113705174D01*
X101690089Y-113705174D02*
X101638684Y-113756579D01*
X101638684Y-113756579D02*
X101535875Y-113807983D01*
X101535875Y-113807983D02*
X101330256Y-113807983D01*
X101330256Y-113807983D02*
X101227446Y-113756579D01*
X102101327Y-113088317D02*
X102358351Y-113807983D01*
X102615374Y-113088317D02*
X102358351Y-113807983D01*
X102358351Y-113807983D02*
X102255541Y-114065007D01*
X102255541Y-114065007D02*
X102204136Y-114116412D01*
X102204136Y-114116412D02*
X102101327Y-114167817D01*
X103026612Y-113705174D02*
X103078017Y-113756579D01*
X103078017Y-113756579D02*
X103026612Y-113807983D01*
X103026612Y-113807983D02*
X102975208Y-113756579D01*
X102975208Y-113756579D02*
X103026612Y-113705174D01*
X103026612Y-113705174D02*
X103026612Y-113807983D01*
X103026612Y-113139721D02*
X103078017Y-113191126D01*
X103078017Y-113191126D02*
X103026612Y-113242531D01*
X103026612Y-113242531D02*
X102975208Y-113191126D01*
X102975208Y-113191126D02*
X103026612Y-113139721D01*
X103026612Y-113139721D02*
X103026612Y-113242531D01*
D10*
X93688714Y-93160870D02*
X94058828Y-93160870D01*
X94058828Y-93160870D02*
X94243885Y-93253399D01*
X94243885Y-93253399D02*
X94428942Y-93438456D01*
X94428942Y-93438456D02*
X94521471Y-93808570D01*
X94521471Y-93808570D02*
X94521471Y-94456270D01*
X94521471Y-94456270D02*
X94428942Y-94826384D01*
X94428942Y-94826384D02*
X94243885Y-95011442D01*
X94243885Y-95011442D02*
X94058828Y-95103970D01*
X94058828Y-95103970D02*
X93688714Y-95103970D01*
X93688714Y-95103970D02*
X93503657Y-95011442D01*
X93503657Y-95011442D02*
X93318599Y-94826384D01*
X93318599Y-94826384D02*
X93226071Y-94456270D01*
X93226071Y-94456270D02*
X93226071Y-93808570D01*
X93226071Y-93808570D02*
X93318599Y-93438456D01*
X93318599Y-93438456D02*
X93503657Y-93253399D01*
X93503657Y-93253399D02*
X93688714Y-93160870D01*
X95354228Y-93160870D02*
X95354228Y-94733856D01*
X95354228Y-94733856D02*
X95446757Y-94918913D01*
X95446757Y-94918913D02*
X95539286Y-95011442D01*
X95539286Y-95011442D02*
X95724343Y-95103970D01*
X95724343Y-95103970D02*
X96094457Y-95103970D01*
X96094457Y-95103970D02*
X96279514Y-95011442D01*
X96279514Y-95011442D02*
X96372043Y-94918913D01*
X96372043Y-94918913D02*
X96464571Y-94733856D01*
X96464571Y-94733856D02*
X96464571Y-93160870D01*
X97112272Y-93160870D02*
X98222615Y-93160870D01*
X97667443Y-95103970D02*
X97667443Y-93160870D01*
X99240429Y-93160870D02*
X99425486Y-93160870D01*
X99425486Y-93160870D02*
X99610543Y-93253399D01*
X99610543Y-93253399D02*
X99703072Y-93345927D01*
X99703072Y-93345927D02*
X99795600Y-93530984D01*
X99795600Y-93530984D02*
X99888129Y-93901099D01*
X99888129Y-93901099D02*
X99888129Y-94363742D01*
X99888129Y-94363742D02*
X99795600Y-94733856D01*
X99795600Y-94733856D02*
X99703072Y-94918913D01*
X99703072Y-94918913D02*
X99610543Y-95011442D01*
X99610543Y-95011442D02*
X99425486Y-95103970D01*
X99425486Y-95103970D02*
X99240429Y-95103970D01*
X99240429Y-95103970D02*
X99055372Y-95011442D01*
X99055372Y-95011442D02*
X98962843Y-94918913D01*
X98962843Y-94918913D02*
X98870314Y-94733856D01*
X98870314Y-94733856D02*
X98777786Y-94363742D01*
X98777786Y-94363742D02*
X98777786Y-93901099D01*
X98777786Y-93901099D02*
X98870314Y-93530984D01*
X98870314Y-93530984D02*
X98962843Y-93345927D01*
X98962843Y-93345927D02*
X99055372Y-93253399D01*
X99055372Y-93253399D02*
X99240429Y-93160870D01*
D12*
X157491552Y-116661296D02*
X157491552Y-115203336D01*
X158116392Y-116661296D02*
X158116392Y-115897603D01*
X158116392Y-115897603D02*
X158046965Y-115758750D01*
X158046965Y-115758750D02*
X157908112Y-115689323D01*
X157908112Y-115689323D02*
X157699832Y-115689323D01*
X157699832Y-115689323D02*
X157560979Y-115758750D01*
X157560979Y-115758750D02*
X157491552Y-115828176D01*
X159435499Y-116661296D02*
X159435499Y-115897603D01*
X159435499Y-115897603D02*
X159366072Y-115758750D01*
X159366072Y-115758750D02*
X159227219Y-115689323D01*
X159227219Y-115689323D02*
X158949512Y-115689323D01*
X158949512Y-115689323D02*
X158810659Y-115758750D01*
X159435499Y-116591870D02*
X159296646Y-116661296D01*
X159296646Y-116661296D02*
X158949512Y-116661296D01*
X158949512Y-116661296D02*
X158810659Y-116591870D01*
X158810659Y-116591870D02*
X158741232Y-116453016D01*
X158741232Y-116453016D02*
X158741232Y-116314163D01*
X158741232Y-116314163D02*
X158810659Y-116175310D01*
X158810659Y-116175310D02*
X158949512Y-116105883D01*
X158949512Y-116105883D02*
X159296646Y-116105883D01*
X159296646Y-116105883D02*
X159435499Y-116036456D01*
X160129766Y-116661296D02*
X160129766Y-115689323D01*
X160129766Y-115967030D02*
X160199193Y-115828176D01*
X160199193Y-115828176D02*
X160268619Y-115758750D01*
X160268619Y-115758750D02*
X160407473Y-115689323D01*
X160407473Y-115689323D02*
X160546326Y-115689323D01*
X161032313Y-115689323D02*
X161032313Y-117147283D01*
X161032313Y-115758750D02*
X161171166Y-115689323D01*
X161171166Y-115689323D02*
X161448873Y-115689323D01*
X161448873Y-115689323D02*
X161587726Y-115758750D01*
X161587726Y-115758750D02*
X161657153Y-115828176D01*
X161657153Y-115828176D02*
X161726580Y-115967030D01*
X161726580Y-115967030D02*
X161726580Y-116383590D01*
X161726580Y-116383590D02*
X161657153Y-116522443D01*
X161657153Y-116522443D02*
X161587726Y-116591870D01*
X161587726Y-116591870D02*
X161448873Y-116661296D01*
X161448873Y-116661296D02*
X161171166Y-116661296D01*
X161171166Y-116661296D02*
X161032313Y-116591870D01*
X163670527Y-116661296D02*
X163531674Y-116591870D01*
X163531674Y-116591870D02*
X163462247Y-116522443D01*
X163462247Y-116522443D02*
X163392820Y-116383590D01*
X163392820Y-116383590D02*
X163392820Y-115967030D01*
X163392820Y-115967030D02*
X163462247Y-115828176D01*
X163462247Y-115828176D02*
X163531674Y-115758750D01*
X163531674Y-115758750D02*
X163670527Y-115689323D01*
X163670527Y-115689323D02*
X163878807Y-115689323D01*
X163878807Y-115689323D02*
X164017660Y-115758750D01*
X164017660Y-115758750D02*
X164087087Y-115828176D01*
X164087087Y-115828176D02*
X164156514Y-115967030D01*
X164156514Y-115967030D02*
X164156514Y-116383590D01*
X164156514Y-116383590D02*
X164087087Y-116522443D01*
X164087087Y-116522443D02*
X164017660Y-116591870D01*
X164017660Y-116591870D02*
X163878807Y-116661296D01*
X163878807Y-116661296D02*
X163670527Y-116661296D01*
X165406194Y-115689323D02*
X165406194Y-116661296D01*
X164781354Y-115689323D02*
X164781354Y-116453016D01*
X164781354Y-116453016D02*
X164850781Y-116591870D01*
X164850781Y-116591870D02*
X164989634Y-116661296D01*
X164989634Y-116661296D02*
X165197914Y-116661296D01*
X165197914Y-116661296D02*
X165336767Y-116591870D01*
X165336767Y-116591870D02*
X165406194Y-116522443D01*
X165892181Y-115689323D02*
X166447594Y-115689323D01*
X166100461Y-115203336D02*
X166100461Y-116453016D01*
X166100461Y-116453016D02*
X166169888Y-116591870D01*
X166169888Y-116591870D02*
X166308741Y-116661296D01*
X166308741Y-116661296D02*
X166447594Y-116661296D01*
X166933581Y-115689323D02*
X166933581Y-117147283D01*
X166933581Y-115758750D02*
X167072434Y-115689323D01*
X167072434Y-115689323D02*
X167350141Y-115689323D01*
X167350141Y-115689323D02*
X167488994Y-115758750D01*
X167488994Y-115758750D02*
X167558421Y-115828176D01*
X167558421Y-115828176D02*
X167627848Y-115967030D01*
X167627848Y-115967030D02*
X167627848Y-116383590D01*
X167627848Y-116383590D02*
X167558421Y-116522443D01*
X167558421Y-116522443D02*
X167488994Y-116591870D01*
X167488994Y-116591870D02*
X167350141Y-116661296D01*
X167350141Y-116661296D02*
X167072434Y-116661296D01*
X167072434Y-116661296D02*
X166933581Y-116591870D01*
X168877528Y-115689323D02*
X168877528Y-116661296D01*
X168252688Y-115689323D02*
X168252688Y-116453016D01*
X168252688Y-116453016D02*
X168322115Y-116591870D01*
X168322115Y-116591870D02*
X168460968Y-116661296D01*
X168460968Y-116661296D02*
X168669248Y-116661296D01*
X168669248Y-116661296D02*
X168808101Y-116591870D01*
X168808101Y-116591870D02*
X168877528Y-116522443D01*
X169363515Y-115689323D02*
X169918928Y-115689323D01*
X169571795Y-115203336D02*
X169571795Y-116453016D01*
X169571795Y-116453016D02*
X169641222Y-116591870D01*
X169641222Y-116591870D02*
X169780075Y-116661296D01*
X169780075Y-116661296D02*
X169918928Y-116661296D01*
X156727859Y-118939104D02*
X156589006Y-119008530D01*
X156589006Y-119008530D02*
X156311299Y-119008530D01*
X156311299Y-119008530D02*
X156172446Y-118939104D01*
X156172446Y-118939104D02*
X156103019Y-118800250D01*
X156103019Y-118800250D02*
X156103019Y-118244837D01*
X156103019Y-118244837D02*
X156172446Y-118105984D01*
X156172446Y-118105984D02*
X156311299Y-118036557D01*
X156311299Y-118036557D02*
X156589006Y-118036557D01*
X156589006Y-118036557D02*
X156727859Y-118105984D01*
X156727859Y-118105984D02*
X156797286Y-118244837D01*
X156797286Y-118244837D02*
X156797286Y-118383690D01*
X156797286Y-118383690D02*
X156103019Y-118522544D01*
X157283273Y-119008530D02*
X158046966Y-118036557D01*
X157283273Y-118036557D02*
X158046966Y-119008530D01*
X158602379Y-118036557D02*
X158602379Y-119494517D01*
X158602379Y-118105984D02*
X158741232Y-118036557D01*
X158741232Y-118036557D02*
X159018939Y-118036557D01*
X159018939Y-118036557D02*
X159157792Y-118105984D01*
X159157792Y-118105984D02*
X159227219Y-118175410D01*
X159227219Y-118175410D02*
X159296646Y-118314264D01*
X159296646Y-118314264D02*
X159296646Y-118730824D01*
X159296646Y-118730824D02*
X159227219Y-118869677D01*
X159227219Y-118869677D02*
X159157792Y-118939104D01*
X159157792Y-118939104D02*
X159018939Y-119008530D01*
X159018939Y-119008530D02*
X158741232Y-119008530D01*
X158741232Y-119008530D02*
X158602379Y-118939104D01*
X160546326Y-119008530D02*
X160546326Y-118244837D01*
X160546326Y-118244837D02*
X160476899Y-118105984D01*
X160476899Y-118105984D02*
X160338046Y-118036557D01*
X160338046Y-118036557D02*
X160060339Y-118036557D01*
X160060339Y-118036557D02*
X159921486Y-118105984D01*
X160546326Y-118939104D02*
X160407473Y-119008530D01*
X160407473Y-119008530D02*
X160060339Y-119008530D01*
X160060339Y-119008530D02*
X159921486Y-118939104D01*
X159921486Y-118939104D02*
X159852059Y-118800250D01*
X159852059Y-118800250D02*
X159852059Y-118661397D01*
X159852059Y-118661397D02*
X159921486Y-118522544D01*
X159921486Y-118522544D02*
X160060339Y-118453117D01*
X160060339Y-118453117D02*
X160407473Y-118453117D01*
X160407473Y-118453117D02*
X160546326Y-118383690D01*
X161240593Y-118036557D02*
X161240593Y-119008530D01*
X161240593Y-118175410D02*
X161310020Y-118105984D01*
X161310020Y-118105984D02*
X161448873Y-118036557D01*
X161448873Y-118036557D02*
X161657153Y-118036557D01*
X161657153Y-118036557D02*
X161796006Y-118105984D01*
X161796006Y-118105984D02*
X161865433Y-118244837D01*
X161865433Y-118244837D02*
X161865433Y-119008530D01*
X163184540Y-119008530D02*
X163184540Y-117550570D01*
X163184540Y-118939104D02*
X163045687Y-119008530D01*
X163045687Y-119008530D02*
X162767980Y-119008530D01*
X162767980Y-119008530D02*
X162629127Y-118939104D01*
X162629127Y-118939104D02*
X162559700Y-118869677D01*
X162559700Y-118869677D02*
X162490273Y-118730824D01*
X162490273Y-118730824D02*
X162490273Y-118314264D01*
X162490273Y-118314264D02*
X162559700Y-118175410D01*
X162559700Y-118175410D02*
X162629127Y-118105984D01*
X162629127Y-118105984D02*
X162767980Y-118036557D01*
X162767980Y-118036557D02*
X163045687Y-118036557D01*
X163045687Y-118036557D02*
X163184540Y-118105984D01*
X164434220Y-118939104D02*
X164295367Y-119008530D01*
X164295367Y-119008530D02*
X164017660Y-119008530D01*
X164017660Y-119008530D02*
X163878807Y-118939104D01*
X163878807Y-118939104D02*
X163809380Y-118800250D01*
X163809380Y-118800250D02*
X163809380Y-118244837D01*
X163809380Y-118244837D02*
X163878807Y-118105984D01*
X163878807Y-118105984D02*
X164017660Y-118036557D01*
X164017660Y-118036557D02*
X164295367Y-118036557D01*
X164295367Y-118036557D02*
X164434220Y-118105984D01*
X164434220Y-118105984D02*
X164503647Y-118244837D01*
X164503647Y-118244837D02*
X164503647Y-118383690D01*
X164503647Y-118383690D02*
X163809380Y-118522544D01*
X165128487Y-119008530D02*
X165128487Y-118036557D01*
X165128487Y-118314264D02*
X165197914Y-118175410D01*
X165197914Y-118175410D02*
X165267340Y-118105984D01*
X165267340Y-118105984D02*
X165406194Y-118036557D01*
X165406194Y-118036557D02*
X165545047Y-118036557D01*
X167003008Y-118036557D02*
X167350141Y-119008530D01*
X167350141Y-119008530D02*
X167697274Y-118036557D01*
X169016381Y-119008530D02*
X168183261Y-119008530D01*
X168599821Y-119008530D02*
X168599821Y-117550570D01*
X168599821Y-117550570D02*
X168460968Y-117758850D01*
X168460968Y-117758850D02*
X168322115Y-117897704D01*
X168322115Y-117897704D02*
X168183261Y-117967130D01*
X169641221Y-118869677D02*
X169710648Y-118939104D01*
X169710648Y-118939104D02*
X169641221Y-119008530D01*
X169641221Y-119008530D02*
X169571794Y-118939104D01*
X169571794Y-118939104D02*
X169641221Y-118869677D01*
X169641221Y-118869677D02*
X169641221Y-119008530D01*
X170196635Y-117550570D02*
X171099181Y-117550570D01*
X171099181Y-117550570D02*
X170613195Y-118105984D01*
X170613195Y-118105984D02*
X170821475Y-118105984D01*
X170821475Y-118105984D02*
X170960328Y-118175410D01*
X170960328Y-118175410D02*
X171029755Y-118244837D01*
X171029755Y-118244837D02*
X171099181Y-118383690D01*
X171099181Y-118383690D02*
X171099181Y-118730824D01*
X171099181Y-118730824D02*
X171029755Y-118869677D01*
X171029755Y-118869677D02*
X170960328Y-118939104D01*
X170960328Y-118939104D02*
X170821475Y-119008530D01*
X170821475Y-119008530D02*
X170404915Y-119008530D01*
X170404915Y-119008530D02*
X170266061Y-118939104D01*
X170266061Y-118939104D02*
X170196635Y-118869677D01*
D10*
X186587084Y-115307720D02*
X186587084Y-114937606D01*
X186587084Y-114937606D02*
X186679613Y-114752549D01*
X186679613Y-114752549D02*
X186864670Y-114567492D01*
X186864670Y-114567492D02*
X187234784Y-114474963D01*
X187234784Y-114474963D02*
X187882484Y-114474963D01*
X187882484Y-114474963D02*
X188252598Y-114567492D01*
X188252598Y-114567492D02*
X188437656Y-114752549D01*
X188437656Y-114752549D02*
X188530184Y-114937606D01*
X188530184Y-114937606D02*
X188530184Y-115307720D01*
X188530184Y-115307720D02*
X188437656Y-115492778D01*
X188437656Y-115492778D02*
X188252598Y-115677835D01*
X188252598Y-115677835D02*
X187882484Y-115770363D01*
X187882484Y-115770363D02*
X187234784Y-115770363D01*
X187234784Y-115770363D02*
X186864670Y-115677835D01*
X186864670Y-115677835D02*
X186679613Y-115492778D01*
X186679613Y-115492778D02*
X186587084Y-115307720D01*
X186587084Y-113642206D02*
X188160070Y-113642206D01*
X188160070Y-113642206D02*
X188345127Y-113549677D01*
X188345127Y-113549677D02*
X188437656Y-113457149D01*
X188437656Y-113457149D02*
X188530184Y-113272091D01*
X188530184Y-113272091D02*
X188530184Y-112901977D01*
X188530184Y-112901977D02*
X188437656Y-112716920D01*
X188437656Y-112716920D02*
X188345127Y-112624391D01*
X188345127Y-112624391D02*
X188160070Y-112531863D01*
X188160070Y-112531863D02*
X186587084Y-112531863D01*
X186587084Y-111884162D02*
X186587084Y-110773820D01*
X188530184Y-111328991D02*
X186587084Y-111328991D01*
X186587084Y-110311177D02*
X186587084Y-109015777D01*
X186587084Y-109015777D02*
X188530184Y-109848534D01*
X127204714Y-93160870D02*
X127574828Y-93160870D01*
X127574828Y-93160870D02*
X127759885Y-93253399D01*
X127759885Y-93253399D02*
X127944942Y-93438456D01*
X127944942Y-93438456D02*
X128037471Y-93808570D01*
X128037471Y-93808570D02*
X128037471Y-94456270D01*
X128037471Y-94456270D02*
X127944942Y-94826384D01*
X127944942Y-94826384D02*
X127759885Y-95011442D01*
X127759885Y-95011442D02*
X127574828Y-95103970D01*
X127574828Y-95103970D02*
X127204714Y-95103970D01*
X127204714Y-95103970D02*
X127019657Y-95011442D01*
X127019657Y-95011442D02*
X126834599Y-94826384D01*
X126834599Y-94826384D02*
X126742071Y-94456270D01*
X126742071Y-94456270D02*
X126742071Y-93808570D01*
X126742071Y-93808570D02*
X126834599Y-93438456D01*
X126834599Y-93438456D02*
X127019657Y-93253399D01*
X127019657Y-93253399D02*
X127204714Y-93160870D01*
X128870228Y-93160870D02*
X128870228Y-94733856D01*
X128870228Y-94733856D02*
X128962757Y-94918913D01*
X128962757Y-94918913D02*
X129055286Y-95011442D01*
X129055286Y-95011442D02*
X129240343Y-95103970D01*
X129240343Y-95103970D02*
X129610457Y-95103970D01*
X129610457Y-95103970D02*
X129795514Y-95011442D01*
X129795514Y-95011442D02*
X129888043Y-94918913D01*
X129888043Y-94918913D02*
X129980571Y-94733856D01*
X129980571Y-94733856D02*
X129980571Y-93160870D01*
X130628272Y-93160870D02*
X131738615Y-93160870D01*
X131183443Y-95103970D02*
X131183443Y-93160870D01*
X132293786Y-93345927D02*
X132386314Y-93253399D01*
X132386314Y-93253399D02*
X132571372Y-93160870D01*
X132571372Y-93160870D02*
X133034014Y-93160870D01*
X133034014Y-93160870D02*
X133219072Y-93253399D01*
X133219072Y-93253399D02*
X133311600Y-93345927D01*
X133311600Y-93345927D02*
X133404129Y-93530984D01*
X133404129Y-93530984D02*
X133404129Y-93716042D01*
X133404129Y-93716042D02*
X133311600Y-93993627D01*
X133311600Y-93993627D02*
X132201257Y-95103970D01*
X132201257Y-95103970D02*
X133404129Y-95103970D01*
X197251084Y-115307720D02*
X197251084Y-114937606D01*
X197251084Y-114937606D02*
X197343613Y-114752549D01*
X197343613Y-114752549D02*
X197528670Y-114567492D01*
X197528670Y-114567492D02*
X197898784Y-114474963D01*
X197898784Y-114474963D02*
X198546484Y-114474963D01*
X198546484Y-114474963D02*
X198916598Y-114567492D01*
X198916598Y-114567492D02*
X199101656Y-114752549D01*
X199101656Y-114752549D02*
X199194184Y-114937606D01*
X199194184Y-114937606D02*
X199194184Y-115307720D01*
X199194184Y-115307720D02*
X199101656Y-115492778D01*
X199101656Y-115492778D02*
X198916598Y-115677835D01*
X198916598Y-115677835D02*
X198546484Y-115770363D01*
X198546484Y-115770363D02*
X197898784Y-115770363D01*
X197898784Y-115770363D02*
X197528670Y-115677835D01*
X197528670Y-115677835D02*
X197343613Y-115492778D01*
X197343613Y-115492778D02*
X197251084Y-115307720D01*
X197251084Y-113642206D02*
X198824070Y-113642206D01*
X198824070Y-113642206D02*
X199009127Y-113549677D01*
X199009127Y-113549677D02*
X199101656Y-113457149D01*
X199101656Y-113457149D02*
X199194184Y-113272091D01*
X199194184Y-113272091D02*
X199194184Y-112901977D01*
X199194184Y-112901977D02*
X199101656Y-112716920D01*
X199101656Y-112716920D02*
X199009127Y-112624391D01*
X199009127Y-112624391D02*
X198824070Y-112531863D01*
X198824070Y-112531863D02*
X197251084Y-112531863D01*
X197251084Y-111884162D02*
X197251084Y-110773820D01*
X199194184Y-111328991D02*
X197251084Y-111328991D01*
X199194184Y-110033591D02*
X199194184Y-109663477D01*
X199194184Y-109663477D02*
X199101656Y-109478420D01*
X199101656Y-109478420D02*
X199009127Y-109385891D01*
X199009127Y-109385891D02*
X198731541Y-109200834D01*
X198731541Y-109200834D02*
X198361427Y-109108305D01*
X198361427Y-109108305D02*
X197621198Y-109108305D01*
X197621198Y-109108305D02*
X197436141Y-109200834D01*
X197436141Y-109200834D02*
X197343613Y-109293363D01*
X197343613Y-109293363D02*
X197251084Y-109478420D01*
X197251084Y-109478420D02*
X197251084Y-109848534D01*
X197251084Y-109848534D02*
X197343613Y-110033591D01*
X197343613Y-110033591D02*
X197436141Y-110126120D01*
X197436141Y-110126120D02*
X197621198Y-110218648D01*
X197621198Y-110218648D02*
X198083841Y-110218648D01*
X198083841Y-110218648D02*
X198268898Y-110126120D01*
X198268898Y-110126120D02*
X198361427Y-110033591D01*
X198361427Y-110033591D02*
X198453956Y-109848534D01*
X198453956Y-109848534D02*
X198453956Y-109478420D01*
X198453956Y-109478420D02*
X198361427Y-109293363D01*
X198361427Y-109293363D02*
X198268898Y-109200834D01*
X198268898Y-109200834D02*
X198083841Y-109108305D01*
X191917084Y-115307720D02*
X191917084Y-114937606D01*
X191917084Y-114937606D02*
X192009613Y-114752549D01*
X192009613Y-114752549D02*
X192194670Y-114567492D01*
X192194670Y-114567492D02*
X192564784Y-114474963D01*
X192564784Y-114474963D02*
X193212484Y-114474963D01*
X193212484Y-114474963D02*
X193582598Y-114567492D01*
X193582598Y-114567492D02*
X193767656Y-114752549D01*
X193767656Y-114752549D02*
X193860184Y-114937606D01*
X193860184Y-114937606D02*
X193860184Y-115307720D01*
X193860184Y-115307720D02*
X193767656Y-115492778D01*
X193767656Y-115492778D02*
X193582598Y-115677835D01*
X193582598Y-115677835D02*
X193212484Y-115770363D01*
X193212484Y-115770363D02*
X192564784Y-115770363D01*
X192564784Y-115770363D02*
X192194670Y-115677835D01*
X192194670Y-115677835D02*
X192009613Y-115492778D01*
X192009613Y-115492778D02*
X191917084Y-115307720D01*
X191917084Y-113642206D02*
X193490070Y-113642206D01*
X193490070Y-113642206D02*
X193675127Y-113549677D01*
X193675127Y-113549677D02*
X193767656Y-113457149D01*
X193767656Y-113457149D02*
X193860184Y-113272091D01*
X193860184Y-113272091D02*
X193860184Y-112901977D01*
X193860184Y-112901977D02*
X193767656Y-112716920D01*
X193767656Y-112716920D02*
X193675127Y-112624391D01*
X193675127Y-112624391D02*
X193490070Y-112531863D01*
X193490070Y-112531863D02*
X191917084Y-112531863D01*
X191917084Y-111884162D02*
X191917084Y-110773820D01*
X193860184Y-111328991D02*
X191917084Y-111328991D01*
X192749841Y-109848534D02*
X192657313Y-110033591D01*
X192657313Y-110033591D02*
X192564784Y-110126120D01*
X192564784Y-110126120D02*
X192379727Y-110218648D01*
X192379727Y-110218648D02*
X192287198Y-110218648D01*
X192287198Y-110218648D02*
X192102141Y-110126120D01*
X192102141Y-110126120D02*
X192009613Y-110033591D01*
X192009613Y-110033591D02*
X191917084Y-109848534D01*
X191917084Y-109848534D02*
X191917084Y-109478420D01*
X191917084Y-109478420D02*
X192009613Y-109293363D01*
X192009613Y-109293363D02*
X192102141Y-109200834D01*
X192102141Y-109200834D02*
X192287198Y-109108305D01*
X192287198Y-109108305D02*
X192379727Y-109108305D01*
X192379727Y-109108305D02*
X192564784Y-109200834D01*
X192564784Y-109200834D02*
X192657313Y-109293363D01*
X192657313Y-109293363D02*
X192749841Y-109478420D01*
X192749841Y-109478420D02*
X192749841Y-109848534D01*
X192749841Y-109848534D02*
X192842370Y-110033591D01*
X192842370Y-110033591D02*
X192934898Y-110126120D01*
X192934898Y-110126120D02*
X193119956Y-110218648D01*
X193119956Y-110218648D02*
X193490070Y-110218648D01*
X193490070Y-110218648D02*
X193675127Y-110126120D01*
X193675127Y-110126120D02*
X193767656Y-110033591D01*
X193767656Y-110033591D02*
X193860184Y-109848534D01*
X193860184Y-109848534D02*
X193860184Y-109478420D01*
X193860184Y-109478420D02*
X193767656Y-109293363D01*
X193767656Y-109293363D02*
X193675127Y-109200834D01*
X193675127Y-109200834D02*
X193490070Y-109108305D01*
X193490070Y-109108305D02*
X193119956Y-109108305D01*
X193119956Y-109108305D02*
X192934898Y-109200834D01*
X192934898Y-109200834D02*
X192842370Y-109293363D01*
X192842370Y-109293363D02*
X192749841Y-109478420D01*
X181257084Y-115307720D02*
X181257084Y-114937606D01*
X181257084Y-114937606D02*
X181349613Y-114752549D01*
X181349613Y-114752549D02*
X181534670Y-114567492D01*
X181534670Y-114567492D02*
X181904784Y-114474963D01*
X181904784Y-114474963D02*
X182552484Y-114474963D01*
X182552484Y-114474963D02*
X182922598Y-114567492D01*
X182922598Y-114567492D02*
X183107656Y-114752549D01*
X183107656Y-114752549D02*
X183200184Y-114937606D01*
X183200184Y-114937606D02*
X183200184Y-115307720D01*
X183200184Y-115307720D02*
X183107656Y-115492778D01*
X183107656Y-115492778D02*
X182922598Y-115677835D01*
X182922598Y-115677835D02*
X182552484Y-115770363D01*
X182552484Y-115770363D02*
X181904784Y-115770363D01*
X181904784Y-115770363D02*
X181534670Y-115677835D01*
X181534670Y-115677835D02*
X181349613Y-115492778D01*
X181349613Y-115492778D02*
X181257084Y-115307720D01*
X181257084Y-113642206D02*
X182830070Y-113642206D01*
X182830070Y-113642206D02*
X183015127Y-113549677D01*
X183015127Y-113549677D02*
X183107656Y-113457149D01*
X183107656Y-113457149D02*
X183200184Y-113272091D01*
X183200184Y-113272091D02*
X183200184Y-112901977D01*
X183200184Y-112901977D02*
X183107656Y-112716920D01*
X183107656Y-112716920D02*
X183015127Y-112624391D01*
X183015127Y-112624391D02*
X182830070Y-112531863D01*
X182830070Y-112531863D02*
X181257084Y-112531863D01*
X181257084Y-111884162D02*
X181257084Y-110773820D01*
X183200184Y-111328991D02*
X181257084Y-111328991D01*
X181257084Y-109293363D02*
X181257084Y-109663477D01*
X181257084Y-109663477D02*
X181349613Y-109848534D01*
X181349613Y-109848534D02*
X181442141Y-109941063D01*
X181442141Y-109941063D02*
X181719727Y-110126120D01*
X181719727Y-110126120D02*
X182089841Y-110218648D01*
X182089841Y-110218648D02*
X182830070Y-110218648D01*
X182830070Y-110218648D02*
X183015127Y-110126120D01*
X183015127Y-110126120D02*
X183107656Y-110033591D01*
X183107656Y-110033591D02*
X183200184Y-109848534D01*
X183200184Y-109848534D02*
X183200184Y-109478420D01*
X183200184Y-109478420D02*
X183107656Y-109293363D01*
X183107656Y-109293363D02*
X183015127Y-109200834D01*
X183015127Y-109200834D02*
X182830070Y-109108305D01*
X182830070Y-109108305D02*
X182367427Y-109108305D01*
X182367427Y-109108305D02*
X182182370Y-109200834D01*
X182182370Y-109200834D02*
X182089841Y-109293363D01*
X182089841Y-109293363D02*
X181997313Y-109478420D01*
X181997313Y-109478420D02*
X181997313Y-109848534D01*
X181997313Y-109848534D02*
X182089841Y-110033591D01*
X182089841Y-110033591D02*
X182182370Y-110126120D01*
X182182370Y-110126120D02*
X182367427Y-110218648D01*
X160932714Y-93160870D02*
X161302828Y-93160870D01*
X161302828Y-93160870D02*
X161487885Y-93253399D01*
X161487885Y-93253399D02*
X161672942Y-93438456D01*
X161672942Y-93438456D02*
X161765471Y-93808570D01*
X161765471Y-93808570D02*
X161765471Y-94456270D01*
X161765471Y-94456270D02*
X161672942Y-94826384D01*
X161672942Y-94826384D02*
X161487885Y-95011442D01*
X161487885Y-95011442D02*
X161302828Y-95103970D01*
X161302828Y-95103970D02*
X160932714Y-95103970D01*
X160932714Y-95103970D02*
X160747657Y-95011442D01*
X160747657Y-95011442D02*
X160562599Y-94826384D01*
X160562599Y-94826384D02*
X160470071Y-94456270D01*
X160470071Y-94456270D02*
X160470071Y-93808570D01*
X160470071Y-93808570D02*
X160562599Y-93438456D01*
X160562599Y-93438456D02*
X160747657Y-93253399D01*
X160747657Y-93253399D02*
X160932714Y-93160870D01*
X162598228Y-93160870D02*
X162598228Y-94733856D01*
X162598228Y-94733856D02*
X162690757Y-94918913D01*
X162690757Y-94918913D02*
X162783286Y-95011442D01*
X162783286Y-95011442D02*
X162968343Y-95103970D01*
X162968343Y-95103970D02*
X163338457Y-95103970D01*
X163338457Y-95103970D02*
X163523514Y-95011442D01*
X163523514Y-95011442D02*
X163616043Y-94918913D01*
X163616043Y-94918913D02*
X163708571Y-94733856D01*
X163708571Y-94733856D02*
X163708571Y-93160870D01*
X164356272Y-93160870D02*
X165466615Y-93160870D01*
X164911443Y-95103970D02*
X164911443Y-93160870D01*
X166947072Y-93808570D02*
X166947072Y-95103970D01*
X166484429Y-93068342D02*
X166021786Y-94456270D01*
X166021786Y-94456270D02*
X167224657Y-94456270D01*
X144068714Y-93160870D02*
X144438828Y-93160870D01*
X144438828Y-93160870D02*
X144623885Y-93253399D01*
X144623885Y-93253399D02*
X144808942Y-93438456D01*
X144808942Y-93438456D02*
X144901471Y-93808570D01*
X144901471Y-93808570D02*
X144901471Y-94456270D01*
X144901471Y-94456270D02*
X144808942Y-94826384D01*
X144808942Y-94826384D02*
X144623885Y-95011442D01*
X144623885Y-95011442D02*
X144438828Y-95103970D01*
X144438828Y-95103970D02*
X144068714Y-95103970D01*
X144068714Y-95103970D02*
X143883657Y-95011442D01*
X143883657Y-95011442D02*
X143698599Y-94826384D01*
X143698599Y-94826384D02*
X143606071Y-94456270D01*
X143606071Y-94456270D02*
X143606071Y-93808570D01*
X143606071Y-93808570D02*
X143698599Y-93438456D01*
X143698599Y-93438456D02*
X143883657Y-93253399D01*
X143883657Y-93253399D02*
X144068714Y-93160870D01*
X145734228Y-93160870D02*
X145734228Y-94733856D01*
X145734228Y-94733856D02*
X145826757Y-94918913D01*
X145826757Y-94918913D02*
X145919286Y-95011442D01*
X145919286Y-95011442D02*
X146104343Y-95103970D01*
X146104343Y-95103970D02*
X146474457Y-95103970D01*
X146474457Y-95103970D02*
X146659514Y-95011442D01*
X146659514Y-95011442D02*
X146752043Y-94918913D01*
X146752043Y-94918913D02*
X146844571Y-94733856D01*
X146844571Y-94733856D02*
X146844571Y-93160870D01*
X147492272Y-93160870D02*
X148602615Y-93160870D01*
X148047443Y-95103970D02*
X148047443Y-93160870D01*
X149065257Y-93160870D02*
X150268129Y-93160870D01*
X150268129Y-93160870D02*
X149620429Y-93901099D01*
X149620429Y-93901099D02*
X149898014Y-93901099D01*
X149898014Y-93901099D02*
X150083072Y-93993627D01*
X150083072Y-93993627D02*
X150175600Y-94086156D01*
X150175600Y-94086156D02*
X150268129Y-94271213D01*
X150268129Y-94271213D02*
X150268129Y-94733856D01*
X150268129Y-94733856D02*
X150175600Y-94918913D01*
X150175600Y-94918913D02*
X150083072Y-95011442D01*
X150083072Y-95011442D02*
X149898014Y-95103970D01*
X149898014Y-95103970D02*
X149342843Y-95103970D01*
X149342843Y-95103970D02*
X149157786Y-95011442D01*
X149157786Y-95011442D02*
X149065257Y-94918913D01*
X175927084Y-97294250D02*
X175927084Y-96924136D01*
X175927084Y-96924136D02*
X176019613Y-96739079D01*
X176019613Y-96739079D02*
X176204670Y-96554022D01*
X176204670Y-96554022D02*
X176574784Y-96461493D01*
X176574784Y-96461493D02*
X177222484Y-96461493D01*
X177222484Y-96461493D02*
X177592598Y-96554022D01*
X177592598Y-96554022D02*
X177777656Y-96739079D01*
X177777656Y-96739079D02*
X177870184Y-96924136D01*
X177870184Y-96924136D02*
X177870184Y-97294250D01*
X177870184Y-97294250D02*
X177777656Y-97479308D01*
X177777656Y-97479308D02*
X177592598Y-97664365D01*
X177592598Y-97664365D02*
X177222484Y-97756893D01*
X177222484Y-97756893D02*
X176574784Y-97756893D01*
X176574784Y-97756893D02*
X176204670Y-97664365D01*
X176204670Y-97664365D02*
X176019613Y-97479308D01*
X176019613Y-97479308D02*
X175927084Y-97294250D01*
X175927084Y-95628736D02*
X177500070Y-95628736D01*
X177500070Y-95628736D02*
X177685127Y-95536207D01*
X177685127Y-95536207D02*
X177777656Y-95443679D01*
X177777656Y-95443679D02*
X177870184Y-95258621D01*
X177870184Y-95258621D02*
X177870184Y-94888507D01*
X177870184Y-94888507D02*
X177777656Y-94703450D01*
X177777656Y-94703450D02*
X177685127Y-94610921D01*
X177685127Y-94610921D02*
X177500070Y-94518393D01*
X177500070Y-94518393D02*
X175927084Y-94518393D01*
X175927084Y-93870692D02*
X175927084Y-92760350D01*
X177870184Y-93315521D02*
X175927084Y-93315521D01*
X175927084Y-91742535D02*
X175927084Y-91557478D01*
X175927084Y-91557478D02*
X176019613Y-91372421D01*
X176019613Y-91372421D02*
X176112141Y-91279893D01*
X176112141Y-91279893D02*
X176297198Y-91187364D01*
X176297198Y-91187364D02*
X176667313Y-91094835D01*
X176667313Y-91094835D02*
X177129956Y-91094835D01*
X177129956Y-91094835D02*
X177500070Y-91187364D01*
X177500070Y-91187364D02*
X177685127Y-91279893D01*
X177685127Y-91279893D02*
X177777656Y-91372421D01*
X177777656Y-91372421D02*
X177870184Y-91557478D01*
X177870184Y-91557478D02*
X177870184Y-91742535D01*
X177870184Y-91742535D02*
X177777656Y-91927593D01*
X177777656Y-91927593D02*
X177685127Y-92020121D01*
X177685127Y-92020121D02*
X177500070Y-92112650D01*
X177500070Y-92112650D02*
X177129956Y-92205178D01*
X177129956Y-92205178D02*
X176667313Y-92205178D01*
X176667313Y-92205178D02*
X176297198Y-92112650D01*
X176297198Y-92112650D02*
X176112141Y-92020121D01*
X176112141Y-92020121D02*
X176019613Y-91927593D01*
X176019613Y-91927593D02*
X175927084Y-91742535D01*
X202585084Y-97294250D02*
X202585084Y-96924136D01*
X202585084Y-96924136D02*
X202677613Y-96739079D01*
X202677613Y-96739079D02*
X202862670Y-96554022D01*
X202862670Y-96554022D02*
X203232784Y-96461493D01*
X203232784Y-96461493D02*
X203880484Y-96461493D01*
X203880484Y-96461493D02*
X204250598Y-96554022D01*
X204250598Y-96554022D02*
X204435656Y-96739079D01*
X204435656Y-96739079D02*
X204528184Y-96924136D01*
X204528184Y-96924136D02*
X204528184Y-97294250D01*
X204528184Y-97294250D02*
X204435656Y-97479308D01*
X204435656Y-97479308D02*
X204250598Y-97664365D01*
X204250598Y-97664365D02*
X203880484Y-97756893D01*
X203880484Y-97756893D02*
X203232784Y-97756893D01*
X203232784Y-97756893D02*
X202862670Y-97664365D01*
X202862670Y-97664365D02*
X202677613Y-97479308D01*
X202677613Y-97479308D02*
X202585084Y-97294250D01*
X204528184Y-95628736D02*
X202585084Y-95628736D01*
X202585084Y-95628736D02*
X204528184Y-94518393D01*
X204528184Y-94518393D02*
X202585084Y-94518393D01*
X191917084Y-97294250D02*
X191917084Y-96924136D01*
X191917084Y-96924136D02*
X192009613Y-96739079D01*
X192009613Y-96739079D02*
X192194670Y-96554022D01*
X192194670Y-96554022D02*
X192564784Y-96461493D01*
X192564784Y-96461493D02*
X193212484Y-96461493D01*
X193212484Y-96461493D02*
X193582598Y-96554022D01*
X193582598Y-96554022D02*
X193767656Y-96739079D01*
X193767656Y-96739079D02*
X193860184Y-96924136D01*
X193860184Y-96924136D02*
X193860184Y-97294250D01*
X193860184Y-97294250D02*
X193767656Y-97479308D01*
X193767656Y-97479308D02*
X193582598Y-97664365D01*
X193582598Y-97664365D02*
X193212484Y-97756893D01*
X193212484Y-97756893D02*
X192564784Y-97756893D01*
X192564784Y-97756893D02*
X192194670Y-97664365D01*
X192194670Y-97664365D02*
X192009613Y-97479308D01*
X192009613Y-97479308D02*
X191917084Y-97294250D01*
X191917084Y-95628736D02*
X193490070Y-95628736D01*
X193490070Y-95628736D02*
X193675127Y-95536207D01*
X193675127Y-95536207D02*
X193767656Y-95443679D01*
X193767656Y-95443679D02*
X193860184Y-95258621D01*
X193860184Y-95258621D02*
X193860184Y-94888507D01*
X193860184Y-94888507D02*
X193767656Y-94703450D01*
X193767656Y-94703450D02*
X193675127Y-94610921D01*
X193675127Y-94610921D02*
X193490070Y-94518393D01*
X193490070Y-94518393D02*
X191917084Y-94518393D01*
X191917084Y-93870692D02*
X191917084Y-92760350D01*
X193860184Y-93315521D02*
X191917084Y-93315521D01*
X191917084Y-92297707D02*
X191917084Y-91094835D01*
X191917084Y-91094835D02*
X192657313Y-91742535D01*
X192657313Y-91742535D02*
X192657313Y-91464950D01*
X192657313Y-91464950D02*
X192749841Y-91279893D01*
X192749841Y-91279893D02*
X192842370Y-91187364D01*
X192842370Y-91187364D02*
X193027427Y-91094835D01*
X193027427Y-91094835D02*
X193490070Y-91094835D01*
X193490070Y-91094835D02*
X193675127Y-91187364D01*
X193675127Y-91187364D02*
X193767656Y-91279893D01*
X193767656Y-91279893D02*
X193860184Y-91464950D01*
X193860184Y-91464950D02*
X193860184Y-92020121D01*
X193860184Y-92020121D02*
X193767656Y-92205178D01*
X193767656Y-92205178D02*
X193675127Y-92297707D01*
X175927084Y-115307720D02*
X175927084Y-114937606D01*
X175927084Y-114937606D02*
X176019613Y-114752549D01*
X176019613Y-114752549D02*
X176204670Y-114567492D01*
X176204670Y-114567492D02*
X176574784Y-114474963D01*
X176574784Y-114474963D02*
X177222484Y-114474963D01*
X177222484Y-114474963D02*
X177592598Y-114567492D01*
X177592598Y-114567492D02*
X177777656Y-114752549D01*
X177777656Y-114752549D02*
X177870184Y-114937606D01*
X177870184Y-114937606D02*
X177870184Y-115307720D01*
X177870184Y-115307720D02*
X177777656Y-115492778D01*
X177777656Y-115492778D02*
X177592598Y-115677835D01*
X177592598Y-115677835D02*
X177222484Y-115770363D01*
X177222484Y-115770363D02*
X176574784Y-115770363D01*
X176574784Y-115770363D02*
X176204670Y-115677835D01*
X176204670Y-115677835D02*
X176019613Y-115492778D01*
X176019613Y-115492778D02*
X175927084Y-115307720D01*
X175927084Y-113642206D02*
X177500070Y-113642206D01*
X177500070Y-113642206D02*
X177685127Y-113549677D01*
X177685127Y-113549677D02*
X177777656Y-113457149D01*
X177777656Y-113457149D02*
X177870184Y-113272091D01*
X177870184Y-113272091D02*
X177870184Y-112901977D01*
X177870184Y-112901977D02*
X177777656Y-112716920D01*
X177777656Y-112716920D02*
X177685127Y-112624391D01*
X177685127Y-112624391D02*
X177500070Y-112531863D01*
X177500070Y-112531863D02*
X175927084Y-112531863D01*
X175927084Y-111884162D02*
X175927084Y-110773820D01*
X177870184Y-111328991D02*
X175927084Y-111328991D01*
X175927084Y-109200834D02*
X175927084Y-110126120D01*
X175927084Y-110126120D02*
X176852370Y-110218648D01*
X176852370Y-110218648D02*
X176759841Y-110126120D01*
X176759841Y-110126120D02*
X176667313Y-109941063D01*
X176667313Y-109941063D02*
X176667313Y-109478420D01*
X176667313Y-109478420D02*
X176759841Y-109293363D01*
X176759841Y-109293363D02*
X176852370Y-109200834D01*
X176852370Y-109200834D02*
X177037427Y-109108305D01*
X177037427Y-109108305D02*
X177500070Y-109108305D01*
X177500070Y-109108305D02*
X177685127Y-109200834D01*
X177685127Y-109200834D02*
X177777656Y-109293363D01*
X177777656Y-109293363D02*
X177870184Y-109478420D01*
X177870184Y-109478420D02*
X177870184Y-109941063D01*
X177870184Y-109941063D02*
X177777656Y-110126120D01*
X177777656Y-110126120D02*
X177685127Y-110218648D01*
X186587084Y-97294250D02*
X186587084Y-96924136D01*
X186587084Y-96924136D02*
X186679613Y-96739079D01*
X186679613Y-96739079D02*
X186864670Y-96554022D01*
X186864670Y-96554022D02*
X187234784Y-96461493D01*
X187234784Y-96461493D02*
X187882484Y-96461493D01*
X187882484Y-96461493D02*
X188252598Y-96554022D01*
X188252598Y-96554022D02*
X188437656Y-96739079D01*
X188437656Y-96739079D02*
X188530184Y-96924136D01*
X188530184Y-96924136D02*
X188530184Y-97294250D01*
X188530184Y-97294250D02*
X188437656Y-97479308D01*
X188437656Y-97479308D02*
X188252598Y-97664365D01*
X188252598Y-97664365D02*
X187882484Y-97756893D01*
X187882484Y-97756893D02*
X187234784Y-97756893D01*
X187234784Y-97756893D02*
X186864670Y-97664365D01*
X186864670Y-97664365D02*
X186679613Y-97479308D01*
X186679613Y-97479308D02*
X186587084Y-97294250D01*
X186587084Y-95628736D02*
X188160070Y-95628736D01*
X188160070Y-95628736D02*
X188345127Y-95536207D01*
X188345127Y-95536207D02*
X188437656Y-95443679D01*
X188437656Y-95443679D02*
X188530184Y-95258621D01*
X188530184Y-95258621D02*
X188530184Y-94888507D01*
X188530184Y-94888507D02*
X188437656Y-94703450D01*
X188437656Y-94703450D02*
X188345127Y-94610921D01*
X188345127Y-94610921D02*
X188160070Y-94518393D01*
X188160070Y-94518393D02*
X186587084Y-94518393D01*
X186587084Y-93870692D02*
X186587084Y-92760350D01*
X188530184Y-93315521D02*
X186587084Y-93315521D01*
X186772141Y-92205178D02*
X186679613Y-92112650D01*
X186679613Y-92112650D02*
X186587084Y-91927593D01*
X186587084Y-91927593D02*
X186587084Y-91464950D01*
X186587084Y-91464950D02*
X186679613Y-91279893D01*
X186679613Y-91279893D02*
X186772141Y-91187364D01*
X186772141Y-91187364D02*
X186957198Y-91094835D01*
X186957198Y-91094835D02*
X187142256Y-91094835D01*
X187142256Y-91094835D02*
X187419841Y-91187364D01*
X187419841Y-91187364D02*
X188530184Y-92297707D01*
X188530184Y-92297707D02*
X188530184Y-91094835D01*
X181257084Y-97294250D02*
X181257084Y-96924136D01*
X181257084Y-96924136D02*
X181349613Y-96739079D01*
X181349613Y-96739079D02*
X181534670Y-96554022D01*
X181534670Y-96554022D02*
X181904784Y-96461493D01*
X181904784Y-96461493D02*
X182552484Y-96461493D01*
X182552484Y-96461493D02*
X182922598Y-96554022D01*
X182922598Y-96554022D02*
X183107656Y-96739079D01*
X183107656Y-96739079D02*
X183200184Y-96924136D01*
X183200184Y-96924136D02*
X183200184Y-97294250D01*
X183200184Y-97294250D02*
X183107656Y-97479308D01*
X183107656Y-97479308D02*
X182922598Y-97664365D01*
X182922598Y-97664365D02*
X182552484Y-97756893D01*
X182552484Y-97756893D02*
X181904784Y-97756893D01*
X181904784Y-97756893D02*
X181534670Y-97664365D01*
X181534670Y-97664365D02*
X181349613Y-97479308D01*
X181349613Y-97479308D02*
X181257084Y-97294250D01*
X181257084Y-95628736D02*
X182830070Y-95628736D01*
X182830070Y-95628736D02*
X183015127Y-95536207D01*
X183015127Y-95536207D02*
X183107656Y-95443679D01*
X183107656Y-95443679D02*
X183200184Y-95258621D01*
X183200184Y-95258621D02*
X183200184Y-94888507D01*
X183200184Y-94888507D02*
X183107656Y-94703450D01*
X183107656Y-94703450D02*
X183015127Y-94610921D01*
X183015127Y-94610921D02*
X182830070Y-94518393D01*
X182830070Y-94518393D02*
X181257084Y-94518393D01*
X181257084Y-93870692D02*
X181257084Y-92760350D01*
X183200184Y-93315521D02*
X181257084Y-93315521D01*
X183200184Y-91094835D02*
X183200184Y-92205178D01*
X183200184Y-91650007D02*
X181257084Y-91650007D01*
X181257084Y-91650007D02*
X181534670Y-91835064D01*
X181534670Y-91835064D02*
X181719727Y-92020121D01*
X181719727Y-92020121D02*
X181812256Y-92205178D01*
X197251084Y-97294250D02*
X197251084Y-96924136D01*
X197251084Y-96924136D02*
X197343613Y-96739079D01*
X197343613Y-96739079D02*
X197528670Y-96554022D01*
X197528670Y-96554022D02*
X197898784Y-96461493D01*
X197898784Y-96461493D02*
X198546484Y-96461493D01*
X198546484Y-96461493D02*
X198916598Y-96554022D01*
X198916598Y-96554022D02*
X199101656Y-96739079D01*
X199101656Y-96739079D02*
X199194184Y-96924136D01*
X199194184Y-96924136D02*
X199194184Y-97294250D01*
X199194184Y-97294250D02*
X199101656Y-97479308D01*
X199101656Y-97479308D02*
X198916598Y-97664365D01*
X198916598Y-97664365D02*
X198546484Y-97756893D01*
X198546484Y-97756893D02*
X197898784Y-97756893D01*
X197898784Y-97756893D02*
X197528670Y-97664365D01*
X197528670Y-97664365D02*
X197343613Y-97479308D01*
X197343613Y-97479308D02*
X197251084Y-97294250D01*
X197251084Y-95628736D02*
X198824070Y-95628736D01*
X198824070Y-95628736D02*
X199009127Y-95536207D01*
X199009127Y-95536207D02*
X199101656Y-95443679D01*
X199101656Y-95443679D02*
X199194184Y-95258621D01*
X199194184Y-95258621D02*
X199194184Y-94888507D01*
X199194184Y-94888507D02*
X199101656Y-94703450D01*
X199101656Y-94703450D02*
X199009127Y-94610921D01*
X199009127Y-94610921D02*
X198824070Y-94518393D01*
X198824070Y-94518393D02*
X197251084Y-94518393D01*
X197251084Y-93870692D02*
X197251084Y-92760350D01*
X199194184Y-93315521D02*
X197251084Y-93315521D01*
X197898784Y-91279893D02*
X199194184Y-91279893D01*
X197158556Y-91742535D02*
X198546484Y-92205178D01*
X198546484Y-92205178D02*
X198546484Y-91002307D01*
X204435656Y-116603119D02*
X204528184Y-116325534D01*
X204528184Y-116325534D02*
X204528184Y-115862891D01*
X204528184Y-115862891D02*
X204435656Y-115677834D01*
X204435656Y-115677834D02*
X204343127Y-115585305D01*
X204343127Y-115585305D02*
X204158070Y-115492776D01*
X204158070Y-115492776D02*
X203973013Y-115492776D01*
X203973013Y-115492776D02*
X203787956Y-115585305D01*
X203787956Y-115585305D02*
X203695427Y-115677834D01*
X203695427Y-115677834D02*
X203602898Y-115862891D01*
X203602898Y-115862891D02*
X203510370Y-116233005D01*
X203510370Y-116233005D02*
X203417841Y-116418062D01*
X203417841Y-116418062D02*
X203325313Y-116510591D01*
X203325313Y-116510591D02*
X203140256Y-116603119D01*
X203140256Y-116603119D02*
X202955198Y-116603119D01*
X202955198Y-116603119D02*
X202770141Y-116510591D01*
X202770141Y-116510591D02*
X202677613Y-116418062D01*
X202677613Y-116418062D02*
X202585084Y-116233005D01*
X202585084Y-116233005D02*
X202585084Y-115770362D01*
X202585084Y-115770362D02*
X202677613Y-115492776D01*
X202585084Y-114937605D02*
X202585084Y-113827263D01*
X204528184Y-114382434D02*
X202585084Y-114382434D01*
X203973013Y-113272091D02*
X203973013Y-112346806D01*
X204528184Y-113457148D02*
X202585084Y-112809448D01*
X202585084Y-112809448D02*
X204528184Y-112161748D01*
X202585084Y-111791634D02*
X202585084Y-110681292D01*
X204528184Y-111236463D02*
X202585084Y-111236463D01*
X203510370Y-110033592D02*
X203510370Y-109385892D01*
X204528184Y-109108306D02*
X204528184Y-110033592D01*
X204528184Y-110033592D02*
X202585084Y-110033592D01*
X202585084Y-110033592D02*
X202585084Y-109108306D01*
%LPC*%
D13*
%TO.C,UNK_HOLE_5*%
X203599100Y-105813600D03*
%TD*%
%TO.C,UNK_HOLE_6*%
X203599100Y-101243600D03*
%TD*%
D14*
%TO.C,UNK_HOLE_2*%
X113309100Y-104323600D03*
%TD*%
D13*
%TO.C,UNK_HOLE_9*%
X192931100Y-101243600D03*
%TD*%
%TO.C,UNK_HOLE_15*%
X176941100Y-101243600D03*
%TD*%
%TO.C,UNK_HOLE_8*%
X198265100Y-105813600D03*
%TD*%
%TO.C,UNK_HOLE_13*%
X182271100Y-101243600D03*
%TD*%
%TO.C,UNK_HOLE_11*%
X187601100Y-101243600D03*
%TD*%
D14*
%TO.C,UNK_HOLE_1*%
X163601100Y-104323600D03*
%TD*%
D13*
%TO.C,UNK_HOLE_7*%
X198265100Y-101243600D03*
%TD*%
D14*
%TO.C,UNK_HOLE_3*%
X130073100Y-104323600D03*
%TD*%
D13*
%TO.C,UNK_HOLE_14*%
X182271100Y-105813600D03*
%TD*%
D14*
%TO.C,UNK_HOLE_0*%
X96557100Y-104323600D03*
%TD*%
%TO.C,UNK_HOLE_4*%
X146837100Y-104323600D03*
%TD*%
D13*
%TO.C,UNK_HOLE_10*%
X192931100Y-105813600D03*
%TD*%
%TO.C,UNK_HOLE_12*%
X187601100Y-105813600D03*
%TD*%
%TO.C,UNK_HOLE_16*%
X176941100Y-105813600D03*
%TD*%
%LPD*%
M02*
