M48
; DRILL file KiCad 10.0.3 date 2026-07-01T22:48:28
; FORMAT={-:-/ absolute / metric / decimal}
; #@! TF.CreationDate,2026-07-01T22:48:28+01:00
; #@! TF.GenerationSoftware,Kicad,Pcbnew,10.0.3
; #@! TF.FileFunction,Plated,1,2,PTH
FMAT,2
METRIC
; #@! TA.AperFunction,Plated,PTH,ViaDrill
T1C0.200
; #@! TA.AperFunction,Plated,PTH,ComponentDrill
T2C0.600
; #@! TA.AperFunction,Plated,PTH,ComponentDrill
T3C0.800
; #@! TA.AperFunction,Plated,PTH,ComponentDrill
T4C0.920
; #@! TA.AperFunction,Plated,PTH,ComponentDrill
T5C1.000
; #@! TA.AperFunction,Plated,PTH,ComponentDrill
T6C1.016
; #@! TA.AperFunction,Plated,PTH,ComponentDrill
T7C1.800
%
G90
G05
T1
X88.527Y-71.759
X88.581Y-135.797
X88.627Y-100.961
X88.627Y-107.819
X88.727Y-78.771
X88.727Y-86.237
X88.727Y-93.603
X88.735Y-142.371
X88.827Y-113.531
X88.827Y-120.543
X89.027Y-129.193
X89.435Y-67.147
X93.993Y-132.597
X95.161Y-69.503
X95.161Y-83.473
X95.161Y-90.839
X95.161Y-98.459
X95.161Y-111.667
X95.161Y-118.779
X95.161Y-125.637
X95.661Y-75.945
X98.979Y-66.993
X99.249Y-85.029
X99.749Y-72.043
X100.749Y-94.395
X100.749Y-102.015
X100.749Y-108.365
X101.2Y-127.5
X101.271Y-113.195
X101.271Y-121.195
X101.349Y-117.223
X101.349Y-125.035
X102.243Y-88.29
X102.324Y-133.003
X104.071Y-104.695
X104.597Y-142.971
X105.213Y-135.921
X105.4Y-127.44
X105.462Y-80.925
X105.575Y-72.856
X105.744Y-67.353
X105.771Y-110.195
X105.971Y-100.545
X106.387Y-117.363
X106.391Y-125.091
X106.4Y-130.1
X106.768Y-119.033
X107.022Y-123.59
X107.249Y-89.461
X107.404Y-71.84
X107.943Y-101.361
X107.991Y-113.921
X108.265Y-121.201
X108.371Y-124.395
X108.437Y-66.793
X108.571Y-118.295
X108.771Y-104.595
X109.233Y-80.781
X109.571Y-118.295
X109.806Y-106.26
X109.816Y-96.236
X110.371Y-110.895
X110.471Y-97.145
X110.571Y-68.657
X110.621Y-105.545
X110.655Y-71.23
X110.858Y-85.657
X110.965Y-122.543
X111.086Y-95.436
X111.421Y-110.795
X111.821Y-97.445
X111.871Y-104.445
X111.986Y-105.652
X112.102Y-113.83
X112.271Y-91.295
X112.4Y-130.8
X112.556Y-96.736
X112.556Y-103.706
X112.687Y-71.84
X112.721Y-110.045
X113.143Y-120.245
X113.371Y-111.495
X113.372Y-114.476
X113.4Y-124.3
X113.526Y-95.936
X113.526Y-104.306
X114.271Y-96.645
X114.471Y-118.295
X114.6Y-122.0
X114.642Y-113.768
X114.769Y-88.661
X114.824Y-134.292
X114.964Y-67.285
X114.971Y-95.595
X115.071Y-103.927
X115.221Y-111.595
X115.412Y-113.095
X115.771Y-99.695
X116.141Y-86.673
X117.182Y-110.653
X117.361Y-71.433
X117.409Y-89.121
X117.8Y-109.9
X118.173Y-72.856
X118.759Y-102.077
X118.773Y-80.687
X118.833Y-95.435
X119.549Y-66.793
X119.657Y-108.046
X119.849Y-92.217
X119.871Y-101.345
X119.951Y-84.394
X120.271Y-135.495
X121.0Y-89.1
X121.171Y-98.095
X121.247Y-87.695
X121.3Y-128.0
X121.421Y-108.145
X121.471Y-118.195
X121.628Y-71.23
X121.701Y-143.125
X122.3Y-81.2
X122.3Y-124.3
X122.371Y-88.495
X122.441Y-73.059
X123.171Y-99.195
X123.421Y-104.245
X123.462Y-116.453
X123.579Y-94.746
X123.7Y-121.9
X123.785Y-109.931
X123.8Y-120.3
X123.895Y-78.992
X124.138Y-113.095
X124.3Y-110.653
X124.371Y-111.495
X124.4Y-91.7
X124.676Y-133.003
X124.879Y-86.877
X124.915Y-115.619
X125.121Y-112.295
X125.171Y-84.595
X125.171Y-101.895
X125.231Y-114.857
X125.3Y-116.281
X125.471Y-97.795
X125.571Y-67.353
X125.571Y-113.895
X125.815Y-108.467
X126.301Y-73.059
X126.415Y-101.868
X126.605Y-75.332
X126.671Y-121.9
X126.8Y-120.2
X127.154Y-103.901
X127.259Y-98.093
X127.271Y-113.995
X127.805Y-88.457
X127.823Y-80.169
X127.859Y-124.983
X128.122Y-108.191
X128.171Y-118.195
X128.371Y-109.295
X128.394Y-101.872
X128.721Y-99.395
X129.071Y-119.895
X129.473Y-66.893
X129.571Y-97.445
X129.813Y-78.094
X130.1Y-128.6
X130.271Y-86.195
X130.919Y-83.947
X131.271Y-113.995
X131.4Y-122.8
X131.671Y-131.495
X131.853Y-69.028
X131.991Y-104.555
X132.0Y-109.9
X132.071Y-91.645
X132.471Y-89.845
X132.5Y-78.9
X132.521Y-100.595
X132.745Y-107.353
X132.771Y-88.495
X132.971Y-94.895
X133.221Y-85.295
X134.056Y-109.913
X134.129Y-90.3
X134.471Y-119.995
X134.555Y-125.161
X134.565Y-118.095
X134.871Y-114.395
X135.0Y-85.5
X135.173Y-88.494
X135.471Y-91.812
X135.569Y-90.169
X135.592Y-94.039
X135.649Y-71.23
X135.968Y-133.053
X136.102Y-100.185
X136.217Y-105.017
X136.4Y-90.4
X136.563Y-69.503
X136.6Y-79.2
X136.602Y-110.574
X136.871Y-109.795
X137.071Y-82.203
X137.071Y-114.969
X137.1Y-122.6
X137.171Y-86.267
X137.6Y-119.9
X137.706Y-117.509
X137.9Y-128.3
X138.229Y-110.547
X138.306Y-142.979
X138.5Y-133.0
X138.645Y-137.227
X138.774Y-98.332
X138.918Y-88.521
X139.11Y-110.362
X139.121Y-85.295
X139.611Y-114.461
X139.638Y-104.05
X140.246Y-118.271
X140.269Y-107.559
X140.4Y-130.7
X140.463Y-110.401
X140.718Y-90.094
X140.921Y-125.161
X141.389Y-79.663
X141.389Y-86.267
X141.798Y-100.938
X141.897Y-114.165
X142.171Y-116.295
X142.4Y-127.5
X142.748Y-108.438
X142.992Y-88.509
X142.997Y-98.4
X143.307Y-83.685
X143.4Y-134.4
X143.472Y-117.509
X143.605Y-109.33
X143.971Y-122.0
X144.021Y-92.045
X144.028Y-118.295
X144.271Y-110.845
X144.371Y-107.245
X144.41Y-99.902
X144.602Y-89.971
X144.818Y-71.281
X144.845Y-93.082
X145.221Y-113.595
X145.507Y-92.093
X145.707Y-76.615
X146.304Y-95.182
X146.412Y-96.546
X146.577Y-120.073
X146.8Y-128.8
X146.888Y-97.824
X146.933Y-116.443
X147.559Y-80.725
X147.866Y-93.76
X147.866Y-99.805
X147.961Y-89.832
X148.529Y-92.657
X148.579Y-66.841
X148.704Y-95.182
X148.721Y-112.7
X148.755Y-96.554
X148.755Y-103.481
X148.759Y-110.993
X148.771Y-116.695
X149.009Y-88.045
X149.041Y-124.661
X149.263Y-97.951
X149.644Y-108.873
X149.793Y-111.757
X150.025Y-114.461
X150.279Y-74.075
X150.279Y-130.768
X150.406Y-108.162
X150.865Y-92.539
X151.041Y-107.476
X151.071Y-120.195
X151.295Y-115.477
X151.571Y-122.0
X151.676Y-106.772
X151.803Y-99.729
X152.057Y-92.617
X152.311Y-83.727
X152.311Y-87.283
X152.771Y-111.395
X153.073Y-76.869
X153.505Y-103.742
X153.987Y-83.879
X154.043Y-68.341
X154.365Y-93.379
X154.394Y-89.569
X154.458Y-133.766
X155.1Y-130.4
X155.286Y-143.025
X155.562Y-87.791
X155.771Y-95.182
X155.867Y-74.583
X155.921Y-96.545
X155.997Y-121.373
X156.442Y-80.982
X156.871Y-93.395
X156.871Y-114.195
X157.0Y-127.0
X157.137Y-97.951
X157.137Y-101.761
X157.391Y-99.729
X157.851Y-110.629
X158.053Y-118.271
X158.102Y-79.46
X158.153Y-116.493
X158.371Y-119.995
X158.601Y-71.535
X159.352Y-125.129
X159.474Y-89.62
X159.671Y-121.895
X159.779Y-86.369
X160.2Y-127.7
X160.477Y-80.185
X160.541Y-66.912
X160.566Y-108.873
X160.8Y-132.3
X161.031Y-74.175
X161.138Y-87.299
X161.607Y-90.382
X161.871Y-93.395
X162.09Y-108.162
X162.755Y-80.801
X162.954Y-95.182
X162.967Y-89.737
X163.365Y-127.997
X163.371Y-121.095
X163.421Y-124.495
X163.487Y-77.326
X163.639Y-107.476
X163.741Y-102.015
X163.792Y-71.891
X164.122Y-96.554
X164.249Y-97.951
X164.476Y-78.601
X164.503Y-99.729
X164.608Y-93.629
X164.627Y-90.699
X164.757Y-67.928
X165.121Y-73.995
X165.161Y-106.788
X165.752Y-132.199
X166.027Y-97.189
X166.027Y-103.996
X166.275Y-91.728
X166.281Y-87.029
X166.343Y-94.241
X166.776Y-119.827
X166.839Y-77.085
X166.916Y-99.376
X166.929Y-67.182
X167.043Y-85.759
X167.09Y-128.995
X167.322Y-94.903
X167.471Y-77.895
X167.48Y-125.129
X167.805Y-100.999
X168.364Y-94.141
X168.687Y-107.457
X168.771Y-131.695
X168.974Y-129.142
X169.532Y-102.421
X169.583Y-81.391
X169.6Y-83.379
X169.71Y-80.171
X170.153Y-111.259
X170.224Y-74.495
X170.345Y-90.347
X170.571Y-100.045
X170.599Y-96.681
X170.663Y-119.827
X171.044Y-91.617
X171.271Y-84.445
X171.488Y-137.321
X171.544Y-125.002
X171.996Y-93.506
X172.114Y-78.751
X172.123Y-94.649
X172.295Y-86.537
X172.295Y-90.651
X172.463Y-81.181
X172.471Y-129.695
X172.735Y-107.611
X172.862Y-108.7
X172.971Y-71.895
X173.188Y-143.133
X173.257Y-88.518
X173.271Y-134.695
X173.272Y-86.52
X173.475Y-83.422
X173.597Y-118.475
X173.651Y-108.319
X174.259Y-100.245
X174.49Y-106.141
X174.64Y-107.739
X174.767Y-108.7
X175.141Y-79.319
X175.362Y-90.905
X175.471Y-74.095
X175.527Y-119.084
X175.671Y-121.095
X175.677Y-122.206
X176.683Y-67.029
X176.695Y-111.286
X176.751Y-104.189
X177.006Y-83.092
X177.152Y-95.646
X177.406Y-108.924
X177.533Y-128.939
X177.802Y-102.355
X177.838Y-73.948
X177.838Y-79.282
X178.6Y-93.506
X178.913Y-117.541
X179.271Y-130.595
X179.489Y-109.127
X179.491Y-106.849
X179.672Y-125.129
X179.771Y-134.495
X179.87Y-85.886
X179.87Y-137.623
X180.759Y-72.043
X181.218Y-106.9
X181.318Y-100.145
X181.929Y-105.275
X181.929Y-107.9
X182.918Y-90.458
X183.079Y-116.878
X183.645Y-120.122
X183.7Y-77.5
X183.736Y-125.002
X183.771Y-75.195
X183.771Y-128.195
X183.934Y-93.506
X184.315Y-108.873
X184.419Y-102.404
X184.442Y-96.046
X184.806Y-92.617
X184.89Y-139.423
X184.972Y-104.266
X185.026Y-128.939
X185.077Y-68.741
X185.102Y-111.405
X185.596Y-143.079
X185.771Y-134.695
X185.793Y-74.155
X185.993Y-83.8
X186.0Y-78.4
X186.0Y-81.7
X186.019Y-116.162
X186.347Y-108.873
X186.982Y-89.95
X187.263Y-107.815
X187.409Y-86.378
X187.771Y-129.695
X187.8Y-124.875
X187.8Y-77.0
X187.922Y-96.325
X187.963Y-100.002
X188.371Y-115.995
X188.4Y-106.7
X188.633Y-108.873
X190.202Y-140.123
X190.411Y-72.551
X190.517Y-92.797
X190.745Y-96.778
X190.82Y-108.611
X191.057Y-115.252
X191.271Y-134.695
X191.5Y-66.9
X191.8Y-126.9
X191.808Y-104.047
X191.965Y-124.875
X192.697Y-78.223
X192.708Y-142.979
X193.105Y-111.151
X193.357Y-129.142
X193.571Y-90.195
X194.178Y-102.229
X195.117Y-114.542
X195.271Y-134.695
X195.471Y-138.695
X195.5Y-72.8
X195.771Y-126.695
X196.037Y-120.464
X196.071Y-96.595
X196.126Y-79.79
X196.7Y-75.1
X196.888Y-104.174
X197.2Y-78.2
X197.274Y-86.792
X197.322Y-84.5
X198.271Y-129.695
X198.475Y-88.333
X198.92Y-142.679
X199.435Y-113.826
X199.5Y-68.969
X199.501Y-70.069
X199.581Y-108.611
X199.657Y-81.4
X199.671Y-78.845
X199.899Y-99.394
X200.121Y-122.045
X200.271Y-127.0
X200.411Y-90.327
X200.8Y-95.5
X200.822Y-138.523
X201.271Y-135.195
X201.7Y-75.099
X201.867Y-111.151
X202.1Y-77.3
X202.7Y-72.8
X202.7Y-84.3
X203.035Y-81.566
X203.641Y-112.991
X203.771Y-129.695
X204.071Y-119.895
X204.3Y-126.9
X204.308Y-143.079
X204.5Y-93.3
X204.74Y-76.916
X205.194Y-89.645
X208.0Y-72.5
X208.064Y-78.139
X208.064Y-93.506
X208.064Y-100.618
X208.064Y-107.222
X208.064Y-112.556
X208.064Y-118.271
X208.064Y-131.86
X208.064Y-137.194
X208.164Y-142.409
X208.191Y-86.292
X208.364Y-125.656
X208.7Y-67.5
T3
X183.517Y-79.8
X186.017Y-79.8
T4
X96.512Y-132.788
X113.313Y-132.788
X130.077Y-132.788
X146.841Y-132.788
X163.605Y-132.788
T5
X94.543Y-108.087
X126.635Y-90.36
X126.635Y-92.9
X126.635Y-95.44
X129.175Y-90.36
X129.175Y-92.9
X129.175Y-95.44
X131.58Y-72.846
X131.58Y-75.386
X134.12Y-72.846
X134.12Y-75.386
X136.66Y-72.846
X136.66Y-75.386
X139.2Y-72.846
X139.2Y-75.386
X141.74Y-72.846
X141.74Y-75.386
X171.758Y-105.19
X183.426Y-85.632
X198.539Y-106.587
T6
X176.941Y-131.352
X176.941Y-133.892
X176.941Y-136.432
X176.941Y-138.972
X182.271Y-131.352
X182.271Y-133.892
X182.271Y-136.432
X182.271Y-138.972
X187.601Y-131.352
X187.601Y-133.892
X187.601Y-136.432
X187.601Y-138.972
X192.931Y-131.352
X192.931Y-133.892
X192.931Y-136.432
X192.931Y-138.972
X198.261Y-131.352
X198.261Y-133.892
X198.261Y-136.432
X198.261Y-138.972
X203.591Y-131.352
X203.591Y-133.892
X203.591Y-136.432
X203.591Y-138.972
T7
X92.712Y-140.588
X100.312Y-140.588
X109.513Y-140.588
X117.113Y-140.588
X126.277Y-140.588
X133.877Y-140.588
X143.041Y-140.588
X150.641Y-140.588
X159.805Y-140.588
X167.405Y-140.588
T2
G00X194.931Y-66.972
M15
G01X194.931Y-66.172
M16
G05
G00X194.931Y-71.302
M15
G01X194.931Y-70.202
M16
G05
G00X203.571Y-66.972
M15
G01X203.571Y-66.172
M16
G05
G00X203.571Y-71.302
M15
G01X203.571Y-70.202
M16
G05
M30
